<mxfile host="app.diagrams.net" modified="2021-08-26T23:58:41.985Z" agent="5.0 (Windows NT 10.0; Win64; x64) AppleWebKit/537.36 (KHTML, like Gecko) Chrome/92.0.4515.159 Safari/537.36" etag="Igf8Oqp2fq8wkFAdTR5x" version="14.9.8" type="github">
  <diagram id="3mTYWU2lz0nCEsbg3SIH" name="Page-1">
    <mxGraphModel dx="1695" dy="450" grid="1" gridSize="10" guides="1" tooltips="1" connect="1" arrows="1" fold="1" page="1" pageScale="1" pageWidth="827" pageHeight="1169" math="0" shadow="0">
      <root>
        <mxCell id="0" />
        <mxCell id="1" parent="0" />
        <mxCell id="CqZ7eUVHcAjxJq2R7sdv-46" style="edgeStyle=orthogonalEdgeStyle;rounded=0;orthogonalLoop=1;jettySize=auto;html=1;exitX=1;exitY=0.5;exitDx=0;exitDy=0;startArrow=none;startFill=0;endArrow=none;endFill=0;entryX=0.05;entryY=0.5;entryDx=0;entryDy=0;entryPerimeter=0;" parent="1" source="CqZ7eUVHcAjxJq2R7sdv-40" target="CqZ7eUVHcAjxJq2R7sdv-2" edge="1">
          <mxGeometry relative="1" as="geometry">
            <mxPoint x="410" y="170" as="targetPoint" />
          </mxGeometry>
        </mxCell>
        <mxCell id="CqZ7eUVHcAjxJq2R7sdv-40" value="Adquiere" style="rhombus;whiteSpace=wrap;html=1;" parent="1" vertex="1">
          <mxGeometry x="220" y="145" width="90" height="50" as="geometry" />
        </mxCell>
        <mxCell id="CqZ7eUVHcAjxJq2R7sdv-59" style="edgeStyle=orthogonalEdgeStyle;rounded=0;orthogonalLoop=1;jettySize=auto;html=1;exitX=0.25;exitY=0;exitDx=0;exitDy=0;startArrow=none;startFill=0;endArrow=oval;endFill=1;" parent="1" source="CqZ7eUVHcAjxJq2R7sdv-44" edge="1">
          <mxGeometry relative="1" as="geometry">
            <mxPoint x="49.58823529411757" y="120" as="targetPoint" />
          </mxGeometry>
        </mxCell>
        <mxCell id="CqZ7eUVHcAjxJq2R7sdv-60" style="edgeStyle=orthogonalEdgeStyle;rounded=0;orthogonalLoop=1;jettySize=auto;html=1;exitX=0.75;exitY=0;exitDx=0;exitDy=0;startArrow=none;startFill=0;endArrow=oval;endFill=0;" parent="1" source="CqZ7eUVHcAjxJq2R7sdv-44" edge="1">
          <mxGeometry relative="1" as="geometry">
            <mxPoint x="109.58823529411757" y="120" as="targetPoint" />
          </mxGeometry>
        </mxCell>
        <mxCell id="CqZ7eUVHcAjxJq2R7sdv-44" value="Comprador" style="rounded=0;whiteSpace=wrap;html=1;" parent="1" vertex="1">
          <mxGeometry x="20" y="140" width="120" height="60" as="geometry" />
        </mxCell>
        <mxCell id="CqZ7eUVHcAjxJq2R7sdv-45" value="" style="endArrow=none;html=1;exitX=1;exitY=0.5;exitDx=0;exitDy=0;entryX=0;entryY=0.5;entryDx=0;entryDy=0;" parent="1" source="CqZ7eUVHcAjxJq2R7sdv-44" target="CqZ7eUVHcAjxJq2R7sdv-40" edge="1">
          <mxGeometry width="50" height="50" relative="1" as="geometry">
            <mxPoint x="340" y="240" as="sourcePoint" />
            <mxPoint x="390" y="190" as="targetPoint" />
          </mxGeometry>
        </mxCell>
        <mxCell id="CqZ7eUVHcAjxJq2R7sdv-47" value="1" style="text;html=1;strokeColor=none;fillColor=none;align=center;verticalAlign=middle;whiteSpace=wrap;rounded=0;" parent="1" vertex="1">
          <mxGeometry x="140" y="150" width="40" height="20" as="geometry" />
        </mxCell>
        <mxCell id="CqZ7eUVHcAjxJq2R7sdv-48" value="N" style="text;html=1;strokeColor=none;fillColor=none;align=center;verticalAlign=middle;whiteSpace=wrap;rounded=0;" parent="1" vertex="1">
          <mxGeometry x="374" y="150" width="40" height="20" as="geometry" />
        </mxCell>
        <mxCell id="CqZ7eUVHcAjxJq2R7sdv-19" style="edgeStyle=orthogonalEdgeStyle;rounded=0;orthogonalLoop=1;jettySize=auto;html=1;exitX=1;exitY=0.75;exitDx=0;exitDy=0;startArrow=none;startFill=0;endArrow=oval;endFill=0;entryX=-0.243;entryY=0.491;entryDx=0;entryDy=0;entryPerimeter=0;" parent="1" source="CqZ7eUVHcAjxJq2R7sdv-2" target="CqZ7eUVHcAjxJq2R7sdv-20" edge="1">
          <mxGeometry x="414" y="90" as="geometry">
            <mxPoint x="570" y="170" as="targetPoint" />
            <Array as="points">
              <mxPoint x="534" y="150" />
            </Array>
          </mxGeometry>
        </mxCell>
        <mxCell id="CqZ7eUVHcAjxJq2R7sdv-52" style="edgeStyle=orthogonalEdgeStyle;rounded=0;orthogonalLoop=1;jettySize=auto;html=1;exitX=0.75;exitY=1;exitDx=0;exitDy=0;startArrow=none;startFill=0;endArrow=oval;endFill=0;" parent="1" source="CqZ7eUVHcAjxJq2R7sdv-2" edge="1">
          <mxGeometry relative="1" as="geometry">
            <mxPoint x="570" y="250" as="targetPoint" />
            <Array as="points">
              <mxPoint x="504" y="250" />
            </Array>
          </mxGeometry>
        </mxCell>
        <mxCell id="CqZ7eUVHcAjxJq2R7sdv-2" value="Artículo" style="rounded=0;whiteSpace=wrap;html=1;" parent="1" vertex="1">
          <mxGeometry x="414" y="140" width="120" height="60" as="geometry" />
        </mxCell>
        <mxCell id="CqZ7eUVHcAjxJq2R7sdv-7" value="Descripción" style="text;html=1;strokeColor=none;fillColor=none;align=center;verticalAlign=middle;whiteSpace=wrap;rounded=0;" parent="1" vertex="1">
          <mxGeometry x="474" y="90" width="40" height="20" as="geometry" />
        </mxCell>
        <mxCell id="CqZ7eUVHcAjxJq2R7sdv-8" value="" style="edgeStyle=orthogonalEdgeStyle;rounded=0;orthogonalLoop=1;jettySize=auto;html=1;startArrow=none;startFill=0;endArrow=oval;endFill=1;exitX=0;exitY=0;exitDx=0;exitDy=0;entryX=0.5;entryY=1;entryDx=0;entryDy=0;" parent="1" source="CqZ7eUVHcAjxJq2R7sdv-2" target="CqZ7eUVHcAjxJq2R7sdv-9" edge="1">
          <mxGeometry x="414" y="90" as="geometry">
            <mxPoint x="404" y="120" as="sourcePoint" />
            <mxPoint x="454" y="120" as="targetPoint" />
          </mxGeometry>
        </mxCell>
        <mxCell id="CqZ7eUVHcAjxJq2R7sdv-9" value="Nombre" style="text;html=1;strokeColor=none;fillColor=none;align=center;verticalAlign=middle;whiteSpace=wrap;rounded=0;" parent="1" vertex="1">
          <mxGeometry x="414" y="90" width="40" height="20" as="geometry" />
        </mxCell>
        <mxCell id="CqZ7eUVHcAjxJq2R7sdv-13" value="" style="edgeStyle=orthogonalEdgeStyle;rounded=0;orthogonalLoop=1;jettySize=auto;html=1;startArrow=none;startFill=0;endArrow=oval;endFill=0;exitX=0.75;exitY=0;exitDx=0;exitDy=0;" parent="1" source="CqZ7eUVHcAjxJq2R7sdv-2" edge="1">
          <mxGeometry x="414" y="90" as="geometry">
            <mxPoint x="504" y="130" as="sourcePoint" />
            <mxPoint x="554" y="110" as="targetPoint" />
          </mxGeometry>
        </mxCell>
        <mxCell id="CqZ7eUVHcAjxJq2R7sdv-14" value="Categoría" style="text;html=1;align=center;verticalAlign=middle;whiteSpace=wrap;rounded=0;strokeWidth=1;" parent="1" vertex="1">
          <mxGeometry x="544" y="90" width="40" height="20" as="geometry" />
        </mxCell>
        <mxCell id="CqZ7eUVHcAjxJq2R7sdv-20" value="Precio" style="text;html=1;strokeColor=none;fillColor=none;align=center;verticalAlign=middle;whiteSpace=wrap;rounded=0;" parent="1" vertex="1">
          <mxGeometry x="584" y="140" width="40" height="20" as="geometry" />
        </mxCell>
        <mxCell id="CqZ7eUVHcAjxJq2R7sdv-28" value="Imágenes" style="text;html=1;strokeColor=none;fillColor=none;align=center;verticalAlign=middle;whiteSpace=wrap;rounded=0;" parent="1" vertex="1">
          <mxGeometry x="584" y="240" width="40" height="20" as="geometry" />
        </mxCell>
        <mxCell id="CqZ7eUVHcAjxJq2R7sdv-33" value="" style="endArrow=oval;html=1;endFill=0;" parent="1" edge="1">
          <mxGeometry x="414" y="90" width="50" height="50" as="geometry">
            <mxPoint x="474" y="140" as="sourcePoint" />
            <mxPoint x="474" y="110" as="targetPoint" />
          </mxGeometry>
        </mxCell>
        <mxCell id="CqZ7eUVHcAjxJq2R7sdv-62" value="Contraseña" style="text;html=1;strokeColor=none;fillColor=none;align=center;verticalAlign=middle;whiteSpace=wrap;rounded=0;" parent="1" vertex="1">
          <mxGeometry x="90" y="90" width="40" height="20" as="geometry" />
        </mxCell>
        <mxCell id="CqZ7eUVHcAjxJq2R7sdv-107" style="edgeStyle=orthogonalEdgeStyle;rounded=0;orthogonalLoop=1;jettySize=auto;html=1;exitX=1;exitY=0.75;exitDx=0;exitDy=0;startArrow=none;startFill=0;endArrow=oval;endFill=0;" parent="1" source="CqZ7eUVHcAjxJq2R7sdv-63" edge="1">
          <mxGeometry relative="1" as="geometry">
            <mxPoint x="180" y="385.11764705882354" as="targetPoint" />
          </mxGeometry>
        </mxCell>
        <mxCell id="CqZ7eUVHcAjxJq2R7sdv-108" style="edgeStyle=orthogonalEdgeStyle;rounded=0;orthogonalLoop=1;jettySize=auto;html=1;exitX=1;exitY=1;exitDx=0;exitDy=0;startArrow=none;startFill=0;endArrow=oval;endFill=0;" parent="1" source="CqZ7eUVHcAjxJq2R7sdv-63" edge="1">
          <mxGeometry relative="1" as="geometry">
            <mxPoint x="200" y="420" as="targetPoint" />
            <Array as="points">
              <mxPoint x="140" y="420" />
            </Array>
          </mxGeometry>
        </mxCell>
        <mxCell id="CqZ7eUVHcAjxJq2R7sdv-112" style="edgeStyle=orthogonalEdgeStyle;rounded=0;orthogonalLoop=1;jettySize=auto;html=1;exitX=0.75;exitY=1;exitDx=0;exitDy=0;startArrow=none;startFill=0;endArrow=oval;endFill=0;" parent="1" source="CqZ7eUVHcAjxJq2R7sdv-63" edge="1">
          <mxGeometry relative="1" as="geometry">
            <mxPoint x="190" y="450" as="targetPoint" />
            <Array as="points">
              <mxPoint x="110" y="450" />
            </Array>
          </mxGeometry>
        </mxCell>
        <mxCell id="CqZ7eUVHcAjxJq2R7sdv-115" style="edgeStyle=orthogonalEdgeStyle;rounded=0;orthogonalLoop=1;jettySize=auto;html=1;exitX=0.5;exitY=1;exitDx=0;exitDy=0;startArrow=none;startFill=0;endArrow=oval;endFill=0;" parent="1" source="CqZ7eUVHcAjxJq2R7sdv-63" edge="1">
          <mxGeometry relative="1" as="geometry">
            <mxPoint x="190" y="470" as="targetPoint" />
            <Array as="points">
              <mxPoint x="80" y="470" />
            </Array>
          </mxGeometry>
        </mxCell>
        <mxCell id="CqZ7eUVHcAjxJq2R7sdv-118" style="edgeStyle=orthogonalEdgeStyle;rounded=0;orthogonalLoop=1;jettySize=auto;html=1;exitX=0.25;exitY=1;exitDx=0;exitDy=0;startArrow=none;startFill=0;endArrow=oval;endFill=0;" parent="1" source="CqZ7eUVHcAjxJq2R7sdv-63" edge="1">
          <mxGeometry relative="1" as="geometry">
            <mxPoint x="190" y="490" as="targetPoint" />
            <Array as="points">
              <mxPoint x="50" y="490" />
            </Array>
          </mxGeometry>
        </mxCell>
        <mxCell id="CqZ7eUVHcAjxJq2R7sdv-121" style="edgeStyle=orthogonalEdgeStyle;rounded=0;orthogonalLoop=1;jettySize=auto;html=1;exitX=0;exitY=1;exitDx=0;exitDy=0;startArrow=none;startFill=0;endArrow=oval;endFill=1;" parent="1" source="CqZ7eUVHcAjxJq2R7sdv-63" edge="1">
          <mxGeometry relative="1" as="geometry">
            <mxPoint x="190" y="510" as="targetPoint" />
            <Array as="points">
              <mxPoint x="20" y="510" />
            </Array>
          </mxGeometry>
        </mxCell>
        <mxCell id="CqZ7eUVHcAjxJq2R7sdv-122" style="edgeStyle=orthogonalEdgeStyle;rounded=0;orthogonalLoop=1;jettySize=auto;html=1;exitX=0;exitY=0.75;exitDx=0;exitDy=0;startArrow=none;startFill=0;endArrow=oval;endFill=0;" parent="1" source="CqZ7eUVHcAjxJq2R7sdv-63" edge="1">
          <mxGeometry relative="1" as="geometry">
            <mxPoint x="190" y="540" as="targetPoint" />
            <Array as="points">
              <mxPoint y="385" />
              <mxPoint y="540" />
            </Array>
          </mxGeometry>
        </mxCell>
        <mxCell id="CqZ7eUVHcAjxJq2R7sdv-125" style="edgeStyle=orthogonalEdgeStyle;rounded=0;orthogonalLoop=1;jettySize=auto;html=1;exitX=0;exitY=0.5;exitDx=0;exitDy=0;startArrow=none;startFill=0;endArrow=oval;endFill=1;" parent="1" source="CqZ7eUVHcAjxJq2R7sdv-63" edge="1">
          <mxGeometry relative="1" as="geometry">
            <mxPoint x="190" y="570" as="targetPoint" />
            <Array as="points">
              <mxPoint x="-20" y="370" />
              <mxPoint x="-20" y="560" />
              <mxPoint x="190" y="560" />
            </Array>
          </mxGeometry>
        </mxCell>
        <mxCell id="CqZ7eUVHcAjxJq2R7sdv-63" value="Carrito de compra" style="rounded=0;whiteSpace=wrap;html=1;strokeColor=#000000;strokeWidth=1;fillColor=none;gradientColor=none;" parent="1" vertex="1">
          <mxGeometry x="20" y="340" width="120" height="60" as="geometry" />
        </mxCell>
        <mxCell id="CqZ7eUVHcAjxJq2R7sdv-65" value="" style="endArrow=none;html=1;" parent="1" edge="1">
          <mxGeometry width="50" height="50" relative="1" as="geometry">
            <mxPoint x="80" y="250" as="sourcePoint" />
            <mxPoint x="80" y="200" as="targetPoint" />
          </mxGeometry>
        </mxCell>
        <mxCell id="CqZ7eUVHcAjxJq2R7sdv-66" value="Compra" style="rhombus;whiteSpace=wrap;html=1;strokeColor=#000000;strokeWidth=1;fillColor=none;gradientColor=none;" parent="1" vertex="1">
          <mxGeometry x="35" y="250" width="90" height="50" as="geometry" />
        </mxCell>
        <mxCell id="CqZ7eUVHcAjxJq2R7sdv-67" value="" style="endArrow=none;html=1;" parent="1" edge="1">
          <mxGeometry width="50" height="50" relative="1" as="geometry">
            <mxPoint x="80" y="340" as="sourcePoint" />
            <mxPoint x="80" y="300" as="targetPoint" />
          </mxGeometry>
        </mxCell>
        <mxCell id="CqZ7eUVHcAjxJq2R7sdv-68" value="" style="endArrow=none;html=1;exitX=1;exitY=0;exitDx=0;exitDy=0;entryX=0;entryY=1;entryDx=0;entryDy=0;" parent="1" source="CqZ7eUVHcAjxJq2R7sdv-69" target="CqZ7eUVHcAjxJq2R7sdv-2" edge="1">
          <mxGeometry width="50" height="50" relative="1" as="geometry">
            <mxPoint x="350" y="260" as="sourcePoint" />
            <mxPoint x="410" y="199" as="targetPoint" />
          </mxGeometry>
        </mxCell>
        <mxCell id="CqZ7eUVHcAjxJq2R7sdv-69" value="Seleccionados &lt;br&gt;en" style="rhombus;whiteSpace=wrap;html=1;strokeColor=#000000;strokeWidth=1;fillColor=none;gradientColor=none;" parent="1" vertex="1">
          <mxGeometry x="230" y="250" width="120" height="70" as="geometry" />
        </mxCell>
        <mxCell id="CqZ7eUVHcAjxJq2R7sdv-70" value="" style="endArrow=none;html=1;exitX=1;exitY=0.5;exitDx=0;exitDy=0;entryX=0;entryY=1;entryDx=0;entryDy=0;" parent="1" source="CqZ7eUVHcAjxJq2R7sdv-63" target="CqZ7eUVHcAjxJq2R7sdv-69" edge="1">
          <mxGeometry width="50" height="50" relative="1" as="geometry">
            <mxPoint x="250" y="300" as="sourcePoint" />
            <mxPoint x="300" y="250" as="targetPoint" />
          </mxGeometry>
        </mxCell>
        <mxCell id="CqZ7eUVHcAjxJq2R7sdv-71" value="1" style="text;html=1;strokeColor=none;fillColor=none;align=center;verticalAlign=middle;whiteSpace=wrap;rounded=0;" parent="1" vertex="1">
          <mxGeometry x="80" y="210" width="40" height="20" as="geometry" />
        </mxCell>
        <mxCell id="CqZ7eUVHcAjxJq2R7sdv-72" value="1" style="text;html=1;strokeColor=none;fillColor=none;align=center;verticalAlign=middle;whiteSpace=wrap;rounded=0;" parent="1" vertex="1">
          <mxGeometry x="80" y="320" width="40" height="20" as="geometry" />
        </mxCell>
        <mxCell id="CqZ7eUVHcAjxJq2R7sdv-74" value="1" style="text;html=1;strokeColor=none;fillColor=none;align=center;verticalAlign=middle;whiteSpace=wrap;rounded=0;" parent="1" vertex="1">
          <mxGeometry x="140" y="340" width="40" height="20" as="geometry" />
        </mxCell>
        <mxCell id="CqZ7eUVHcAjxJq2R7sdv-76" value="N" style="text;html=1;strokeColor=none;fillColor=none;align=center;verticalAlign=middle;whiteSpace=wrap;rounded=0;" parent="1" vertex="1">
          <mxGeometry x="380" y="190" width="40" height="20" as="geometry" />
        </mxCell>
        <mxCell id="CqZ7eUVHcAjxJq2R7sdv-97" style="edgeStyle=orthogonalEdgeStyle;rounded=0;orthogonalLoop=1;jettySize=auto;html=1;exitX=0;exitY=0.25;exitDx=0;exitDy=0;startArrow=none;startFill=0;endArrow=oval;endFill=0;" parent="1" source="CqZ7eUVHcAjxJq2R7sdv-77" edge="1">
          <mxGeometry relative="1" as="geometry">
            <mxPoint x="-360" y="154.52941176470586" as="targetPoint" />
          </mxGeometry>
        </mxCell>
        <mxCell id="CqZ7eUVHcAjxJq2R7sdv-104" style="edgeStyle=orthogonalEdgeStyle;rounded=0;orthogonalLoop=1;jettySize=auto;html=1;exitX=0;exitY=1;exitDx=0;exitDy=0;startArrow=none;startFill=0;endArrow=oval;endFill=1;" parent="1" source="CqZ7eUVHcAjxJq2R7sdv-77" edge="1">
          <mxGeometry relative="1" as="geometry">
            <mxPoint x="-360" y="230" as="targetPoint" />
            <Array as="points">
              <mxPoint x="-310" y="220" />
              <mxPoint x="-335" y="220" />
              <mxPoint x="-335" y="210" />
              <mxPoint x="-350" y="210" />
              <mxPoint x="-350" y="230" />
            </Array>
          </mxGeometry>
        </mxCell>
        <mxCell id="CqZ7eUVHcAjxJq2R7sdv-77" value="Método de envío" style="rounded=0;whiteSpace=wrap;html=1;strokeColor=#000000;strokeWidth=1;fillColor=none;gradientColor=none;" parent="1" vertex="1">
          <mxGeometry x="-310" y="140" width="120" height="60" as="geometry" />
        </mxCell>
        <mxCell id="CqZ7eUVHcAjxJq2R7sdv-78" value="" style="endArrow=none;html=1;entryX=0;entryY=0.5;entryDx=0;entryDy=0;" parent="1" target="CqZ7eUVHcAjxJq2R7sdv-44" edge="1">
          <mxGeometry width="50" height="50" relative="1" as="geometry">
            <mxPoint x="-50" y="170" as="sourcePoint" />
            <mxPoint x="-25" y="175" as="targetPoint" />
          </mxGeometry>
        </mxCell>
        <mxCell id="CqZ7eUVHcAjxJq2R7sdv-79" value="Elige" style="rhombus;whiteSpace=wrap;html=1;strokeColor=#000000;strokeWidth=1;fillColor=none;gradientColor=none;" parent="1" vertex="1">
          <mxGeometry x="-120" y="145" width="70" height="50" as="geometry" />
        </mxCell>
        <mxCell id="CqZ7eUVHcAjxJq2R7sdv-80" value="" style="endArrow=none;html=1;exitX=1;exitY=0.5;exitDx=0;exitDy=0;entryX=0;entryY=0.5;entryDx=0;entryDy=0;" parent="1" source="CqZ7eUVHcAjxJq2R7sdv-77" target="CqZ7eUVHcAjxJq2R7sdv-79" edge="1">
          <mxGeometry width="50" height="50" relative="1" as="geometry">
            <mxPoint x="20" y="360" as="sourcePoint" />
            <mxPoint x="70" y="310" as="targetPoint" />
          </mxGeometry>
        </mxCell>
        <mxCell id="CqZ7eUVHcAjxJq2R7sdv-81" value="1" style="text;html=1;strokeColor=none;fillColor=none;align=center;verticalAlign=middle;whiteSpace=wrap;rounded=0;" parent="1" vertex="1">
          <mxGeometry x="-20" y="145" width="40" height="20" as="geometry" />
        </mxCell>
        <mxCell id="CqZ7eUVHcAjxJq2R7sdv-82" value="1" style="text;html=1;strokeColor=none;fillColor=none;align=center;verticalAlign=middle;whiteSpace=wrap;rounded=0;" parent="1" vertex="1">
          <mxGeometry x="-190" y="145" width="40" height="20" as="geometry" />
        </mxCell>
        <mxCell id="CqZ7eUVHcAjxJq2R7sdv-91" style="edgeStyle=orthogonalEdgeStyle;rounded=0;orthogonalLoop=1;jettySize=auto;html=1;exitX=0.25;exitY=1;exitDx=0;exitDy=0;startArrow=none;startFill=0;endArrow=oval;endFill=0;" parent="1" source="CqZ7eUVHcAjxJq2R7sdv-83" edge="1">
          <mxGeometry relative="1" as="geometry">
            <mxPoint x="-279.7647058823529" y="420" as="targetPoint" />
          </mxGeometry>
        </mxCell>
        <mxCell id="CqZ7eUVHcAjxJq2R7sdv-92" style="edgeStyle=orthogonalEdgeStyle;rounded=0;orthogonalLoop=1;jettySize=auto;html=1;exitX=0.75;exitY=1;exitDx=0;exitDy=0;startArrow=none;startFill=0;endArrow=oval;endFill=0;" parent="1" source="CqZ7eUVHcAjxJq2R7sdv-83" edge="1">
          <mxGeometry relative="1" as="geometry">
            <mxPoint x="-219.76470588235293" y="420" as="targetPoint" />
          </mxGeometry>
        </mxCell>
        <mxCell id="CqZ7eUVHcAjxJq2R7sdv-83" value="Forma de pago" style="rounded=0;whiteSpace=wrap;html=1;strokeColor=#000000;strokeWidth=1;fillColor=none;gradientColor=none;" parent="1" vertex="1">
          <mxGeometry x="-310" y="330" width="120" height="60" as="geometry" />
        </mxCell>
        <mxCell id="CqZ7eUVHcAjxJq2R7sdv-84" value="Paga" style="rhombus;whiteSpace=wrap;html=1;strokeColor=#000000;strokeWidth=1;fillColor=none;gradientColor=none;" parent="1" vertex="1">
          <mxGeometry x="-100" y="280" width="70" height="40" as="geometry" />
        </mxCell>
        <mxCell id="CqZ7eUVHcAjxJq2R7sdv-85" value="" style="endArrow=none;html=1;entryX=0;entryY=1;entryDx=0;entryDy=0;" parent="1" source="CqZ7eUVHcAjxJq2R7sdv-84" target="CqZ7eUVHcAjxJq2R7sdv-44" edge="1">
          <mxGeometry width="50" height="50" relative="1" as="geometry">
            <mxPoint x="-50" y="280" as="sourcePoint" />
            <mxPoint x="70" y="310" as="targetPoint" />
          </mxGeometry>
        </mxCell>
        <mxCell id="CqZ7eUVHcAjxJq2R7sdv-86" value="" style="endArrow=none;html=1;exitX=1;exitY=1;exitDx=0;exitDy=0;entryX=0;entryY=1;entryDx=0;entryDy=0;" parent="1" source="CqZ7eUVHcAjxJq2R7sdv-83" target="CqZ7eUVHcAjxJq2R7sdv-84" edge="1">
          <mxGeometry width="50" height="50" relative="1" as="geometry">
            <mxPoint x="20" y="360" as="sourcePoint" />
            <mxPoint x="70" y="310" as="targetPoint" />
          </mxGeometry>
        </mxCell>
        <mxCell id="CqZ7eUVHcAjxJq2R7sdv-87" value="1" style="text;html=1;strokeColor=none;fillColor=none;align=center;verticalAlign=middle;whiteSpace=wrap;rounded=0;" parent="1" vertex="1">
          <mxGeometry x="-190" y="350" width="40" height="20" as="geometry" />
        </mxCell>
        <mxCell id="CqZ7eUVHcAjxJq2R7sdv-88" value="1" style="text;html=1;strokeColor=none;fillColor=none;align=center;verticalAlign=middle;whiteSpace=wrap;rounded=0;" parent="1" vertex="1">
          <mxGeometry x="-20" y="180" width="40" height="20" as="geometry" />
        </mxCell>
        <mxCell id="CqZ7eUVHcAjxJq2R7sdv-89" value="Usuario" style="text;html=1;strokeColor=none;fillColor=none;align=center;verticalAlign=middle;whiteSpace=wrap;rounded=0;" parent="1" vertex="1">
          <mxGeometry x="30" y="90" width="40" height="20" as="geometry" />
        </mxCell>
        <mxCell id="CqZ7eUVHcAjxJq2R7sdv-94" value="Tarjeta de crédito" style="text;html=1;strokeColor=none;fillColor=none;align=center;verticalAlign=middle;whiteSpace=wrap;rounded=0;" parent="1" vertex="1">
          <mxGeometry x="-300" y="430" width="40" height="20" as="geometry" />
        </mxCell>
        <mxCell id="CqZ7eUVHcAjxJq2R7sdv-95" value="Tarjeta de débito" style="text;html=1;strokeColor=none;fillColor=none;align=center;verticalAlign=middle;whiteSpace=wrap;rounded=0;" parent="1" vertex="1">
          <mxGeometry x="-240" y="435" width="40" height="20" as="geometry" />
        </mxCell>
        <mxCell id="CqZ7eUVHcAjxJq2R7sdv-100" value="Dirección" style="text;html=1;strokeColor=none;fillColor=none;align=center;verticalAlign=middle;whiteSpace=wrap;rounded=0;" parent="1" vertex="1">
          <mxGeometry x="-410" y="145" width="40" height="20" as="geometry" />
        </mxCell>
        <mxCell id="CqZ7eUVHcAjxJq2R7sdv-105" value="Tipo de envío" style="text;html=1;strokeColor=none;fillColor=none;align=center;verticalAlign=middle;whiteSpace=wrap;rounded=0;" parent="1" vertex="1">
          <mxGeometry x="-430" y="215" width="60" height="20" as="geometry" />
        </mxCell>
        <mxCell id="CqZ7eUVHcAjxJq2R7sdv-109" value="Artículos seleccionados" style="text;html=1;strokeColor=none;fillColor=none;align=center;verticalAlign=middle;whiteSpace=wrap;rounded=0;" parent="1" vertex="1">
          <mxGeometry x="185" y="370" width="140" height="20" as="geometry" />
        </mxCell>
        <mxCell id="CqZ7eUVHcAjxJq2R7sdv-111" value="Costo unitario por artículo" style="text;html=1;strokeColor=none;fillColor=none;align=center;verticalAlign=middle;whiteSpace=wrap;rounded=0;" parent="1" vertex="1">
          <mxGeometry x="210" y="400" width="140" height="30" as="geometry" />
        </mxCell>
        <mxCell id="CqZ7eUVHcAjxJq2R7sdv-113" value="cantidad a comprar de cada artículo" style="text;html=1;strokeColor=none;fillColor=none;align=center;verticalAlign=middle;whiteSpace=wrap;rounded=0;" parent="1" vertex="1">
          <mxGeometry x="200" y="430" width="195" height="30" as="geometry" />
        </mxCell>
        <mxCell id="CqZ7eUVHcAjxJq2R7sdv-116" value="Costo total del costo unitario" style="text;html=1;strokeColor=none;fillColor=none;align=center;verticalAlign=middle;whiteSpace=wrap;rounded=0;" parent="1" vertex="1">
          <mxGeometry x="200" y="460" width="160" height="20" as="geometry" />
        </mxCell>
        <mxCell id="CqZ7eUVHcAjxJq2R7sdv-119" value="Subtotal" style="text;html=1;strokeColor=none;fillColor=none;align=center;verticalAlign=middle;whiteSpace=wrap;rounded=0;" parent="1" vertex="1">
          <mxGeometry x="200" y="480" width="40" height="20" as="geometry" />
        </mxCell>
        <mxCell id="CqZ7eUVHcAjxJq2R7sdv-123" value="Total" style="text;html=1;strokeColor=none;fillColor=none;align=center;verticalAlign=middle;whiteSpace=wrap;rounded=0;" parent="1" vertex="1">
          <mxGeometry x="190" y="530" width="40" height="20" as="geometry" />
        </mxCell>
        <mxCell id="CqZ7eUVHcAjxJq2R7sdv-124" value="Costo de envío" style="text;html=1;strokeColor=none;fillColor=none;align=center;verticalAlign=middle;whiteSpace=wrap;rounded=0;" parent="1" vertex="1">
          <mxGeometry x="200" y="500" width="90" height="20" as="geometry" />
        </mxCell>
        <mxCell id="CqZ7eUVHcAjxJq2R7sdv-126" value="Forma de pago" style="text;html=1;strokeColor=none;fillColor=none;align=center;verticalAlign=middle;whiteSpace=wrap;rounded=0;" parent="1" vertex="1">
          <mxGeometry x="200" y="560" width="90" height="20" as="geometry" />
        </mxCell>
      </root>
    </mxGraphModel>
  </diagram>
</mxfile>
